<svg width="138" height="34" viewBox="0 0 138 34" fill="none" xmlns="http://www.w3.org/2000/svg">
<path d="M42.7422 26V13.104H45.1862L45.4202 14.924C45.8362 14.2653 46.3822 13.7453 47.0582 13.364C47.7515 12.9827 48.5489 12.792 49.4502 12.792C51.4955 12.792 52.9169 13.598 53.7142 15.21C54.1822 14.4647 54.8062 13.8753 55.5862 13.442C56.3835 13.0087 57.2415 12.792 58.1602 12.792C59.7722 12.792 61.0375 13.2773 61.9562 14.248C62.8749 15.2187 63.3342 16.666 63.3342 18.59V26H60.5782V18.876C60.5782 16.38 59.6249 15.132 57.7182 15.132C56.7475 15.132 55.9502 15.496 55.3262 16.224C54.7195 16.952 54.4162 17.992 54.4162 19.344V26H51.6602V18.876C51.6602 16.38 50.6982 15.132 48.7742 15.132C47.8209 15.132 47.0322 15.496 46.4082 16.224C45.8015 16.952 45.4982 17.992 45.4982 19.344V26H42.7422ZM72.5906 26.312C71.3253 26.312 70.1986 26.0347 69.2106 25.48C68.2399 24.908 67.4773 24.1193 66.9226 23.114C66.3679 22.1087 66.0906 20.9387 66.0906 19.604C66.0906 18.252 66.3593 17.0647 66.8966 16.042C67.4513 15.0193 68.2139 14.222 69.1846 13.65C70.1726 13.078 71.3166 12.792 72.6166 12.792C73.8819 12.792 74.9826 13.078 75.9186 13.65C76.8546 14.2047 77.5826 14.95 78.1026 15.886C78.6226 16.822 78.8826 17.8533 78.8826 18.98C78.8826 19.1533 78.8739 19.344 78.8566 19.552C78.8566 19.7427 78.8479 19.9593 78.8306 20.202H68.7946C68.8813 21.45 69.2886 22.4033 70.0166 23.062C70.7619 23.7033 71.6199 24.024 72.5906 24.024C73.3706 24.024 74.0206 23.8507 74.5406 23.504C75.0779 23.14 75.4766 22.6547 75.7366 22.048H78.4926C78.1459 23.2613 77.4526 24.2753 76.4126 25.09C75.3899 25.9047 74.1159 26.312 72.5906 26.312ZM72.5906 15.054C71.6719 15.054 70.8573 15.3313 70.1466 15.886C69.4359 16.4233 69.0026 17.238 68.8466 18.33H76.1266C76.0746 17.3247 75.7193 16.5273 75.0606 15.938C74.4019 15.3487 73.5786 15.054 72.5906 15.054ZM81.7422 26V13.104H84.1862L84.4202 14.924C84.8362 14.2653 85.3822 13.7453 86.0582 13.364C86.7515 12.9827 87.5489 12.792 88.4502 12.792C90.4955 12.792 91.9169 13.598 92.7142 15.21C93.1822 14.4647 93.8062 13.8753 94.5862 13.442C95.3835 13.0087 96.2415 12.792 97.1602 12.792C98.7722 12.792 100.037 13.2773 100.956 14.248C101.875 15.2187 102.334 16.666 102.334 18.59V26H99.5782V18.876C99.5782 16.38 98.6249 15.132 96.7182 15.132C95.7475 15.132 94.9502 15.496 94.3262 16.224C93.7195 16.952 93.4162 17.992 93.4162 19.344V26H90.6602V18.876C90.6602 16.38 89.6982 15.132 87.7742 15.132C86.8209 15.132 86.0322 15.496 85.4082 16.224C84.8015 16.952 84.4982 17.992 84.4982 19.344V26H81.7422ZM112.812 26.312C111.807 26.312 110.914 26.1127 110.134 25.714C109.372 25.3153 108.765 24.752 108.314 24.024L108.028 26H105.558V7.28003H108.314V15.106C108.73 14.4993 109.302 13.962 110.03 13.494C110.758 13.026 111.694 12.792 112.838 12.792C114.086 12.792 115.187 13.0867 116.14 13.676C117.094 14.2653 117.839 15.0713 118.376 16.094C118.931 17.1167 119.208 18.278 119.208 19.578C119.208 20.878 118.931 22.0393 118.376 23.062C117.839 24.0673 117.094 24.8647 116.14 25.454C115.187 26.026 114.078 26.312 112.812 26.312ZM112.344 23.92C113.523 23.92 114.494 23.5213 115.256 22.724C116.019 21.9093 116.4 20.852 116.4 19.552C116.4 18.7027 116.227 17.9487 115.88 17.29C115.534 16.6313 115.057 16.12 114.45 15.756C113.844 15.3747 113.142 15.184 112.344 15.184C111.166 15.184 110.195 15.5913 109.432 16.406C108.687 17.2207 108.314 18.2693 108.314 19.552C108.314 20.852 108.687 21.9093 109.432 22.724C110.195 23.5213 111.166 23.92 112.344 23.92ZM123.749 10.66C123.229 10.66 122.796 10.504 122.449 10.192C122.12 9.8627 121.955 9.45536 121.955 8.97003C121.955 8.4847 122.12 8.08603 122.449 7.77403C122.796 7.4447 123.229 7.28003 123.749 7.28003C124.269 7.28003 124.694 7.4447 125.023 7.77403C125.37 8.08603 125.543 8.4847 125.543 8.97003C125.543 9.45536 125.37 9.8627 125.023 10.192C124.694 10.504 124.269 10.66 123.749 10.66ZM122.371 26V13.104H125.127V26H122.371ZM134.173 26C132.908 26 131.903 25.6967 131.157 25.09C130.412 24.466 130.039 23.3653 130.039 21.788V15.418H127.829V13.104H130.039L130.377 9.82803H132.795V13.104H136.435V15.418H132.795V21.788C132.795 22.4987 132.943 22.9927 133.237 23.27C133.549 23.53 134.078 23.66 134.823 23.66H136.305V26H134.173Z" fill="#202327"/>
<path d="M13.8955 0.354492C18.4577 0.354564 14.0135 7.91772 12.3037 12.4873C14.699 12.079 17.2454 12.146 19.0762 12.4873C22.8564 5.00391 28.2621 0.637691 31.3027 2.39355C35.2644 4.68139 31.3025 10.7261 25.9492 15.7979C30.5744 20.1233 29.7178 28.1742 25.9492 30.915C22.9607 33.0884 14.3432 34.6432 5.77832 31.3008C-2.7865 27.9583 -0.567711 19.2532 4.31445 15.2275C6.25736 9.06381 8.87078 0.35449 13.8955 0.354492ZM17.7275 18.6768C16.7268 18.677 15.916 19.8871 15.916 21.3799C15.9161 22.8725 16.7268 24.0828 17.7275 24.083C18.7284 24.083 19.5399 22.8726 19.54 21.3799C19.54 19.887 18.7284 18.6768 17.7275 18.6768ZM8.40625 18.1318C7.40539 18.1318 6.59383 19.3422 6.59375 20.835C6.59375 22.3278 7.40535 23.5381 8.40625 23.5381C9.40706 23.5379 10.2188 22.3277 10.2188 20.835C10.2187 19.3423 9.40701 18.132 8.40625 18.1318Z" fill="#8F8FFF"/>
</svg>
